<?xml version="1.0" encoding="utf-8"?>
<!-- Generator: Adobe Illustrator 24.0.1, SVG Export Plug-In . SVG Version: 6.00 Build 0)  -->
<svg version="1.1" id="Layer_1" xmlns="http://www.w3.org/2000/svg" xmlns:xlink="http://www.w3.org/1999/xlink" x="0px" y="0px"
	 viewBox="0 0 1979.4 807" style="enable-background:new 0 0 1979.4 807;" xml:space="preserve">
<style type="text/css">
	.st0{fill:#51ADCF;}
</style>
<title>BG</title>
<path class="st0" d="M0,0c5.1,2.2,12.6,6.3,19.2,13.7c4.4,4.9,7.1,9.8,9,13.9c12,26.3,10.4,65.8,24.7,86c19,26.8,53.8,2.7,84.6,29
	c32.6,27.9,3.2,63.6,40.2,107c17.9,21,51,43.5,89.6,50.6c0.8,0.2,1.4,0.3,2.1,0.4c57.1,9.9,75.8-8.1,98,0
	c27.3,9.9,13.5,42.4,51.6,81c8.4,8.5,34.7,32.9,73.2,40c28.2,5.2,66.7,1.8,86.6-3c3.2-0.8,12.4-3.2,24.9-3.1c0,0,13.2,0.1,25.4,3.6
	c31.4,9,29,72.5,74.4,101.4c29,18.4,74.1,20.7,85.4,20.3c1.1,0,2.6-0.1,2.6-0.1c9-0.4,24-1,39.7-2.8c16.6-1.9,20.8-3.5,30.4-2.8
	c7,0.5,12.7,2,14.1,2.4c0,0,6.3,1.7,12.3,4.5c34.8,16.3,86.7,77.5,86.7,77.5c19,22.4,34.8,42.7,64.8,54.2c0,0,1.2,0.5,2.2,0.8
	c1.3,0.5,110.8-24.3,135.1-27c86.6-9.5,146.7,146.7,217.5,129.5c7.5-1.8,31-9.5,56.9-21.7c20.9-9.9,34.6-18.6,40.1-21.8
	c33.1-19.7,108.3-43.1,162.9-20c64.4,27.2,56.5,103,107.2,107c22.1,1.8,59.1-9.8,94.9-21c14.8-4.6,16.4-5.3,16.4-5.3
	c2.9-1.2,7.4-3.1,14-4.7c0,0,2.2-0.5,4.6-1c7.1-1.3,41.7,5.4,87.9,18.4c0-269,0-538,0-807C1319.6,0,659.8,0,0,0z"/>
</svg>
