<?xml version="1.0" encoding="utf-8"?>
<!-- Generator: Adobe Illustrator 24.0.1, SVG Export Plug-In . SVG Version: 6.00 Build 0)  -->
<svg version="1.1" id="master-artboard" xmlns="http://www.w3.org/2000/svg" xmlns:xlink="http://www.w3.org/1999/xlink" x="0px"
	 y="0px" viewBox="0 0 730.9 792.3" style="enable-background:new 0 0 730.9 792.3;" xml:space="preserve">
<style type="text/css">
	.st0{fill:#335C64;}
	.st1{fill:#2A484C;}
	.st2{fill:#0A3542;}
	.st3{fill:#082B33;}
	.st4{fill:#DFB28B;}
	.st5{fill:#CF9E76;}
	.st6{fill:#4A0F00;}
	.st7{fill:#28100C;}
	.st8{fill:url(#SVGID_1_);}
	.st9{fill:url(#SVGID_2_);}
	.st10{fill:url(#SVGID_3_);}
	.st11{fill:url(#SVGID_4_);}
	.st12{fill:#231F20;}
	.st13{fill:#543E36;}
	.st14{fill:url(#SVGID_5_);}
	.st15{fill:url(#SVGID_6_);}
	.st16{fill:url(#SVGID_7_);}
	.st17{fill:#DAD7C5;}
	.st18{fill:#B08874;}
	.st19{opacity:0.3;fill:#F1F2F2;enable-background:new    ;}
	.st20{fill:url(#SVGID_8_);}
	.st21{fill:#B07E09;}
	.st22{fill:#642D10;}
</style>
<title>LECTERN2</title>
<path class="st0" d="M280.4,236.2c0,0-55.2,84.6-73,85.7c0,0-40.7,44.5,18.9,51.2c4.9,0.6,22.7-28.5,58.7-45.2L280.4,236.2z"/>
<path class="st1" d="M242.7,358.3c9.6-9.5,23.5-21.7,42.4-30.4l-1.5-30C269.1,308.6,250.2,327.9,242.7,358.3z"/>
<path class="st0" d="M453.1,236.2c0,0,55.2,84.6,73,85.7c0,0,40.7,44.5-18.9,51.2c-4.9,0.6-22.7-28.5-58.7-45.2L453.1,236.2z"/>
<path class="st1" d="M451.9,258.9l-3.5,69c17.5,8.1,30.7,19.2,40.2,28.3L451.9,258.9z"/>
<path class="st2" d="M447.1,462l-9.3,17.8H294.9l-8.2-17.8l-9.8-228.9l90-41.2l90,41.2L447.1,462z"/>
<path class="st3" d="M308.7,380.5c106.8-24.5,125.2-104,125.2-104L308.7,380.5z"/>
<path class="st3" d="M336.2,242.9l-42.2,29.2l32-75h81.5l32,75l-42.2-29.2L366.9,261L336.2,242.9z"/>
<path class="st0" d="M336.2,235.3l-42.2,29.2l32-75h81.5l32,75l-42.2-29.2L366.9,261L336.2,235.3z"/>
<path class="st1" d="M402.8,209c0,11.5-15.9,20.8-35.6,20.8c-19.7,0-35.6-9.3-35.6-20.8c0-11.5,15.9-20.8,35.6-20.8
	C386.9,188.2,402.8,197.6,402.8,209z"/>
<path class="st4" d="M396.8,220.3l-30,33.4l-30-33.4v-68.6h59.9V220.3z"/>
<path class="st5" d="M396.8,184.3c0,0-18.8,33.4-30,33.4s-30-33.4-30-33.4v-68.6h59.9L396.8,184.3z"/>
<path class="st5" d="M330.6,121.9c0,1.6-1.3,2.9-2.9,3l-8.6,0.5c-1.6,0-3.1-1-3.6-2.5l-6.8-23.3c-0.4-1.6,0.2-3.3,1.5-4.3l5.3-3.6
	c1.5-0.9,3.3-1,4.8-0.3l7.6,4.1c1.5,0.9,2.4,2.4,2.5,4.2L330.6,121.9z"/>
<path class="st5" d="M404.5,121.9c0,1.6,1.3,2.9,2.9,3l8.6,0.5c1.6,0,3.1-1,3.6-2.5l6.8-23.3c0.4-1.6-0.2-3.3-1.5-4.3l-5.3-3.6
	c-1.5-0.9-3.3-1-4.8-0.3l-7.6,4.1c-1.5,0.9-2.4,2.4-2.5,4.2L404.5,121.9z"/>
<path class="st6" d="M428.3,62c1.8-6.4-11.7-11-11.7-11c10.3-7.6,4.8-24.5,4.8-24.5C406.1,38.9,374.2,7.8,350,0.7
	c-21.3-6.2-29.5,34.1-31.1,43.9c-0.7-0.2-1.4-0.4-2.3-0.6c-1.9-0.5-3.9-0.7-5.9-0.8c-1.2,0-2.3,0-3.5,0.2c-1.2,0.2-2.4,0.7-3.5,1.3
	c-1.1,0.7-1.9,1.7-2.4,2.9c-0.4,1.1-0.6,2.2-0.6,3.4c0,1,0.1,2,0.3,3c0.2,0.9,0.4,1.7,0.7,2.6c0.1,0.4,0.2,0.8,0.4,1.1
	c0.1,0.4,0.2,0.7,0.4,1c0.2,0.6,0.5,1.2,0.6,1.6l0.6,1.4l-0.4-1.4c-0.1-0.5-0.3-1-0.4-1.7c-0.1-0.3-0.2-0.7-0.2-1
	c-0.1-0.4-0.2-0.7-0.2-1.1c-0.2-0.9-0.3-1.7-0.3-2.6c-0.1-1,0-1.9,0.1-2.9c0.1-0.9,0.4-1.8,0.9-2.7c0.4-0.8,1.1-1.4,1.9-1.8
	c0.8-0.4,1.7-0.6,2.7-0.6c1,0,1.9,0,2.9,0.2c1.1,0.2,2.2,0.5,3.3,0.8c-19.6,3.5,0.6,27.2,4.8,36.4c4.5,9.9-3.6,20.8-3.6,20.8
	l6.4,6.9h-3.9l7.8,8.9l82.7-0.3l7.8-11.7l-5.5,2.5l7.5-8.8c0,0-6.3-9.7-5.8-16.6C412.3,78.3,426.5,68.4,428.3,62z"/>
<path class="st7" d="M305.6,53.2c-2.1,8.6,9.8,23.5,13,30.3c4.5,9.9-3.6,20.8-3.6,20.8l6.4,6.9h-3.9l7.8,8.9l82.7-0.3l7.8-11.7
	l-5.5,2.4l7.5-8.8c0,0-6.3-9.7-5.8-16.6c0.5-6.9,14.7-16.7,16.5-23.1c0.2-0.7,0.2-1.4,0.1-2.1C383.6,107.8,323.8,67.6,305.6,53.2z"
	/>
<path class="st4" d="M409.5,55.6c-0.2-3-1.7-5.8-4.2-7.6l-16.6-10.7c-2.8-1.6-5.9-2.5-9.1-2.7H354c-3.2,0.1-6.3,1.1-9.1,2.7
	L328.4,48c-2.5,1.8-4,4.6-4.2,7.6v87.6c0.2,3.1,1.5,6,3.7,8.2l17.4,21.9c2.5,1.9,5.5,3.1,8.7,3.3h25.7c3.2-0.2,6.2-1.3,8.7-3.3
	l17.4-21.9c2.2-2.2,3.6-5.1,3.7-8.2V55.6z"/>
<linearGradient id="SVGID_1_" gradientUnits="userSpaceOnUse" x1="387.3432" y1="527.0299" x2="387.3432" y2="559.2" gradientTransform="matrix(0.9504 0 0 -0.9504 33.0478 642.2999)">
	<stop  offset="0" style="stop-color:#CF9E76;stop-opacity:0"/>
	<stop  offset="0.99" style="stop-color:#CF9E76"/>
</linearGradient>
<path class="st8" d="M395.3,116c-5.5,10.8,0,48.7,0,48.7l10.5-13.2c2.2-2.2,3.6-5.1,3.7-8.2v-37.6
	C409.5,105.7,397.3,112.1,395.3,116z"/>
<linearGradient id="SVGID_2_" gradientUnits="userSpaceOnUse" x1="314.0782" y1="527.0299" x2="314.0782" y2="559.2" gradientTransform="matrix(0.9504 0 0 -0.9504 33.0478 642.2999)">
	<stop  offset="0" style="stop-color:#CF9E76;stop-opacity:0"/>
	<stop  offset="0.99" style="stop-color:#CF9E76"/>
</linearGradient>
<path class="st9" d="M335.2,114.4c-2-3.9-11-8.7-11-8.7v37.6c0.2,3.1,1.5,6,3.7,8.2l10.5,13.2C338.4,164.7,340.7,125.3,335.2,114.4z
	"/>
<linearGradient id="SVGID_3_" gradientUnits="userSpaceOnUse" x1="375.7288" y1="583.0686" x2="360.9988" y2="582.9786" gradientTransform="matrix(0.9504 0 0 -0.9504 33.0478 642.2999)">
	<stop  offset="0" style="stop-color:#CF9E76;stop-opacity:0"/>
	<stop  offset="0.99" style="stop-color:#CF9E76"/>
</linearGradient>
<path class="st10" d="M377.1,79.8l0.1,16.8l3.7-5.6l14.9,1l2.8,4.2l-7.7-16L377.1,79.8z"/>
<linearGradient id="SVGID_4_" gradientUnits="userSpaceOnUse" x1="-2208.2603" y1="583.0686" x2="-2222.9902" y2="582.9786" gradientTransform="matrix(-0.9504 0 0 -0.9504 -1755.1968 642.2999)">
	<stop  offset="0" style="stop-color:#CF9E76;stop-opacity:0"/>
	<stop  offset="0.99" style="stop-color:#CF9E76"/>
</linearGradient>
<path class="st11" d="M356.7,79.8l-0.1,16.8l-3.7-5.6l-15,1l-2.8,4.2l7.7-16L356.7,79.8z"/>
<path class="st12" d="M377,97l3.3-6.6l15.9,1l2.2,5.4l-2.9-4.1L381,91.9L377,97z"/>
<path d="M391.3,92.4c0-0.5-0.1-0.9-0.3-1.3l-8-0.5c-0.2,0.4-0.4,0.9-0.5,1.4c0,0.2-0.1,0.5-0.1,0.7c0.1,2.4,2.2,4.3,4.6,4.2
	c2.3-0.1,4.1-1.9,4.2-4.2C391.3,92.6,391.3,92.5,391.3,92.4z"/>
<path class="st12" d="M356.8,97l-3.3-6.6l-15.9,1l-2.2,5.4l2.9-4.1l14.5-0.8L356.8,97z"/>
<path d="M342.4,92.4c0-0.5,0.1-0.9,0.3-1.3l8-0.5c0.2,0.4,0.4,0.9,0.5,1.4c0,0.2,0.1,0.5,0.1,0.7c-0.1,2.4-2.2,4.3-4.6,4.2
	c-2.3-0.1-4.1-1.9-4.2-4.2C342.4,92.6,342.4,92.5,342.4,92.4z"/>
<path class="st13" d="M379.2,89.9c0.2-0.1,0.4-0.3,0.7-0.4c0.3-0.1,0.5-0.3,0.8-0.4l0.5-0.2l0.6-0.2c0.4-0.1,0.9-0.3,1.3-0.4
	c0.5-0.1,1-0.2,1.5-0.2l0.8-0.1h0.8c0.6,0,1.1,0,1.7,0.1c0.6,0,1.1,0.2,1.7,0.3c0.5,0.1,1.1,0.3,1.6,0.4c0.5,0.1,1,0.4,1.4,0.5
	c0.4,0.2,0.8,0.4,1.2,0.6c0.3,0.2,0.7,0.3,1,0.6l0.7,0.5l0.6,0.4l-0.7-0.3l-0.8-0.3c-0.3-0.1-0.7-0.2-1.1-0.4l-0.6-0.2
	c-0.2-0.1-0.4-0.2-0.6-0.2l-1.4-0.4l-1.5-0.3c-0.5-0.1-1.1-0.2-1.6-0.2c-0.5,0-1.1-0.1-1.6-0.1h-0.8h-0.8c-0.5,0-1,0.1-1.5,0.1
	s-0.9,0.1-1.3,0.2C380.9,89.4,380.1,89.6,379.2,89.9z"/>
<path class="st13" d="M354.7,89.9c-0.2-0.1-0.4-0.3-0.7-0.4c-0.3-0.1-0.5-0.3-0.8-0.4l-0.5-0.2l-0.6-0.2c-0.4-0.1-0.9-0.2-1.3-0.4
	c-0.5-0.1-1-0.2-1.5-0.2l-0.8-0.1h-0.8c-0.6,0-1.1,0-1.7,0.1c-0.6,0-1.1,0.2-1.7,0.3s-1.1,0.3-1.6,0.4c-0.5,0.1-1,0.4-1.4,0.5
	c-0.4,0.2-0.8,0.4-1.2,0.6c-0.4,0.2-0.7,0.3-1,0.6l-0.7,0.5l-0.6,0.4l0.7-0.3l0.8-0.3c0.3-0.1,0.7-0.2,1.1-0.4l0.6-0.2
	c0.2-0.1,0.4-0.2,0.6-0.2l1.4-0.4l1.5-0.3c0.5-0.1,1.1-0.2,1.6-0.2c0.5,0,1.1-0.1,1.6-0.1h0.8h0.8c0.5,0,1,0.1,1.5,0.1
	s1,0.1,1.3,0.2C352.9,89.4,353.8,89.6,354.7,89.9z"/>
<linearGradient id="SVGID_5_" gradientUnits="userSpaceOnUse" x1="351.3138" y1="549.8799" x2="351.3138" y2="541.6299" gradientTransform="matrix(0.9504 0 0 -0.9504 33.0478 642.2999)">
	<stop  offset="0" style="stop-color:#CF9E76;stop-opacity:0"/>
	<stop  offset="0.99" style="stop-color:#CF9E76"/>
</linearGradient>
<path class="st14" d="M369.1,112.1h-3.9l-2.1,16.4l3.7,2.2l3.8-2.1L369.1,112.1z"/>
<linearGradient id="SVGID_6_" gradientUnits="userSpaceOnUse" x1="351.2387" y1="587.6599" x2="351.2387" y2="534.6899" gradientTransform="matrix(0.9504 0 0 -0.9504 33.0478 642.2999)">
	<stop  offset="0" style="stop-color:#CF9E76;stop-opacity:0"/>
	<stop  offset="0.45" style="stop-color:#CF9E76"/>
	<stop  offset="1" style="stop-color:#B44921"/>
</linearGradient>
<path class="st15" d="M377.7,114.8l-2.4-11.6c0,0-3.5-4.6-3.7-6.4c-0.4-2.9,3.1-15.4,3.1-15.4h-15.7c0,0,3.4,12.4,3.1,15.4
	c-0.2,1.8-3.7,6.4-3.7,6.4l-2.4,11.6c-2,0.7-3.4,2.2-3.4,3.9c0,2.4,2.7,4.3,6,4.3c0.7,0,1.3-0.1,2-0.2c1.1,1.5,3.5,2.6,6.3,2.6
	s5.2-1.1,6.3-2.6c0.6,0.2,1.3,0.2,2,0.2c3.3,0,6-1.9,6-4.3C381.1,117,379.7,115.5,377.7,114.8z"/>
<path class="st12" d="M378.9,121.5c0.1,0.6-1.2,1.2-2.7,1.4l0,0c-1.6,0.2-2.9-0.1-3-0.7l0,0c-0.1-0.6,1.2-1.2,2.7-1.4l0,0
	C377.5,120.6,378.9,120.9,378.9,121.5L378.9,121.5z"/>
<path class="st12" d="M357.9,120.8c1.6,0.2,2.8,0.8,2.7,1.4c-0.1,0.6-1.4,0.9-3,0.7s-2.8-0.8-2.7-1.4
	C354.9,120.9,356.3,120.6,357.9,120.8z"/>
<linearGradient id="SVGID_7_" gradientUnits="userSpaceOnUse" x1="351.3179" y1="510.2799" x2="351.4379" y2="520.9999" gradientTransform="matrix(0.9504 0 0 -0.9504 33.0478 642.2999)">
	<stop  offset="0" style="stop-color:#CF9E76;stop-opacity:0"/>
	<stop  offset="0.99" style="stop-color:#CF9E76"/>
</linearGradient>
<path class="st16" d="M347.3,163.6h39.2C363.6,129.2,347.3,163.6,347.3,163.6z"/>
<path class="st12" d="M342.9,126.4c0,0,25.7,12.4,47.9,0C390.7,126.3,368,165.1,342.9,126.4z"/>
<path class="st17" d="M347.3,131c0,0,21,15.6,38.5,0l-0.6-2.1c-14.5,5.6-29.5,2.1-37.1-0.5L347.3,131z"/>
<path class="st18" d="M342.8,126.3c0,0,23.1,40.5,48.1,0C390.9,126.3,370.5,157.9,342.8,126.3z"/>
<path class="st18" d="M372.2,129c0,0-4.1,2.7-5.4,2.7s-4.8-2.9-4.8-2.9s-15.9-0.5-19.8-2.7c0,0,27.4,15.5,48.9,0
	C391.2,126.1,385,129.5,372.2,129z"/>
<path class="st5" d="M398.9,65.6l-4-2.9l-6-24.7l-35.1,2.3l-18.1-0.7c-0.5,2.2-0.9,4.5-1.2,6.7c0,0,0,9,6.8,10
	c13.6,2,24.8-18.4,34.5-10.8c0.5,0.7,0.9,1.4,1.2,2.2c0.9,2.4,1.6,4.8,2.1,7.3c0.3,1.4,0.5,2.9,0.8,4.4l0.1,0.3l0.1,0.3l0.1,0.6
	c0.1,0.4,0.2,0.8,0.3,1.2c0.1,0.4,0.2,0.8,0.3,1.2c0.1,0.4,0.2,0.8,0.3,1.1c0.5,1.5,1,3,1.7,4.4c0.2,0.4,0.4,0.7,0.6,1
	c0.2,0.3,0.4,0.6,0.6,1s0.4,0.6,0.6,1c0.2,0.3,0.4,0.6,0.7,0.9c0.9,1.1,1.8,2.1,2.9,3c0.9,0.8,2,1.5,3.1,2c0.5,0.3,1,0.4,1.5,0.6
	s1,0.3,1.4,0.4c0.4,0.1,0.8,0.2,1.2,0.3c0.4,0.1,0.7,0.1,1.1,0.2l0.8,0.1h0.6h0.5l-0.5-0.1l-0.6-0.1c-0.2,0-0.5-0.1-0.8-0.2
	s-0.7-0.2-1-0.3c-0.4-0.1-0.8-0.2-1.2-0.4c-0.4-0.2-0.9-0.3-1.3-0.5c-0.5-0.2-1-0.4-1.4-0.7c-1-0.6-2-1.3-2.9-2.1
	c-1-0.9-1.8-1.9-2.6-3.1c-0.2-0.3-0.4-0.6-0.6-0.9c-0.2-0.3-0.4-0.6-0.5-1s-0.4-0.7-0.5-1l-0.5-1c-0.6-1.4-1-2.8-1.3-4.3
	c-0.1-0.4-0.2-0.7-0.2-1.1c-0.1-0.4-0.2-0.7-0.2-1.1c-0.1-0.4-0.1-0.7-0.2-1.1l-0.1-0.6v-0.3v-0.2c-0.2-1.5-0.3-3-0.5-4.5
	c0-0.4-0.1-0.8-0.2-1.2c0.2,0.4,0.4,0.9,0.6,1.4c11,26.9,21.1,18.8,24.3,16.9C406.1,71.7,400.7,73.6,398.9,65.6z"/>
<path class="st18" d="M336.9,68.9c0,0,0.9-0.3,2.4-0.8c1.6-0.5,3.8-1.1,6.5-1.7c1.4-0.3,2.9-0.6,4.4-0.8c0.8-0.1,1.6-0.2,2.4-0.4
	c0.8-0.1,1.7-0.2,2.5-0.3l1.3-0.1l1.3-0.1c0.9-0.1,1.8-0.1,2.7-0.2c0.9-0.1,1.8-0.1,2.8-0.1c0.9,0,1.9,0,2.8,0c1.9,0,3.7,0,5.6,0.1
	l1.4,0.1l1.3,0.1l1.3,0.1l1.3,0.1c0.9,0.1,1.7,0.2,2.5,0.3c0.8,0.1,1.6,0.2,2.4,0.4s1.5,0.3,2.3,0.4l2.1,0.4
	c0.7,0.1,1.3,0.3,1.9,0.5c0.6,0.1,1.2,0.3,1.7,0.4c1.1,0.3,2,0.6,2.9,0.8l2.4,0.8l-2.5-0.7c-0.8-0.2-1.7-0.5-2.9-0.8
	c-0.5-0.2-1.1-0.3-1.7-0.4c-0.6-0.1-1.3-0.3-2-0.4l-2.1-0.4c-0.7-0.1-1.5-0.2-2.3-0.4c-0.8-0.1-1.6-0.2-2.4-0.3
	c-0.4-0.1-0.8-0.1-1.3-0.2l-1.3-0.1l-1.3-0.1l-1.3-0.1l-1.3-0.1l-1.4-0.1c-1.8-0.1-3.7-0.1-5.5-0.1c-1,0-1.9,0-2.8,0
	c-0.9,0-1.8,0.1-2.8,0.1s-1.8,0.1-2.7,0.2l-1.3,0.1l-1.3,0.1c-0.9,0.1-1.7,0.2-2.5,0.3c-0.8,0.1-1.6,0.2-2.4,0.3
	c-1.6,0.2-3.1,0.5-4.4,0.8s-2.6,0.5-3.7,0.8s-2.1,0.5-2.9,0.7C337.9,68.6,336.9,68.9,336.9,68.9z"/>
<path class="st18" d="M336.9,72.4c0,0,0.9-0.3,2.4-0.8c1.6-0.5,3.8-1.1,6.5-1.7c1.4-0.3,2.9-0.6,4.4-0.8c0.8-0.1,1.6-0.2,2.4-0.4
	c0.8-0.1,1.7-0.2,2.5-0.3l1.3-0.1l1.3-0.1c0.9-0.1,1.8-0.1,2.7-0.2c0.9-0.1,1.8-0.1,2.8-0.1c0.9,0,1.9,0,2.8,0c1.9,0,3.7,0,5.6,0.1
	l1.4,0.1c0.5,0,1,0.1,1.3,0.1l1.3,0.1l1.3,0.1c0.9,0.1,1.7,0.2,2.5,0.3c0.8,0.1,1.6,0.2,2.4,0.4s1.5,0.3,2.3,0.4l2.1,0.4
	c0.7,0.1,1.3,0.3,1.9,0.5c0.6,0.1,1.2,0.3,1.7,0.4c1.1,0.3,2,0.6,2.9,0.8l2.4,0.8l-2.5-0.7c-0.8-0.2-1.7-0.5-2.9-0.8
	c-0.5-0.2-1.1-0.3-1.7-0.4c-0.6-0.1-1.3-0.3-2-0.4l-2.1-0.4c-0.7-0.1-1.5-0.2-2.3-0.4c-0.8-0.1-1.6-0.2-2.4-0.4l-1.3-0.2l-1.3-0.1
	c-0.4,0-0.9-0.1-1.3-0.1l-1.3-0.1l-1.3-0.1l-1.4-0.1c-1.8-0.1-3.7-0.1-5.5-0.1c-1,0-1.9,0-2.8,0c-0.9,0-1.8,0.1-2.8,0.1
	s-1.8,0.1-2.7,0.2l-1.3,0.1l-1.3,0.1c-0.9,0.1-1.7,0.2-2.5,0.3c-0.8,0.1-1.6,0.2-2.4,0.3c-1.6,0.2-3.1,0.5-4.4,0.8
	c-1.4,0.3-2.6,0.5-3.7,0.8s-2.1,0.5-2.9,0.7C337.9,72.1,336.9,72.4,336.9,72.4z"/>
<path class="st6" d="M406.1,67.4c0,0-5.5,1.8-7.3-6c-1.8-7.8,5-23.8-1.1-30.7s-58.1-31.2-63.2,12.8c0,0,0,8.4,6.8,9.4
	c13.6,1.9,24.8-17.3,34.5-10.1c0.5,0.7,0.9,1.3,1.2,2.1c0.9,2.2,1.6,4.5,2.1,6.9c0.3,1.3,0.5,2.7,0.8,4.2l0.1,0.3l0.1,0.3l0.1,0.5
	c0.1,0.3,0.2,0.7,0.3,1.1c0.1,0.4,0.2,0.7,0.3,1.1s0.2,0.7,0.3,1.1c0.5,1.4,1,2.8,1.7,4.2l0.6,1c0.2,0.3,0.4,0.6,0.6,0.9
	s0.4,0.6,0.6,0.9c0.2,0.3,0.4,0.6,0.7,0.8c0.9,1.1,1.8,2,2.9,2.9c1,0.8,2,1.4,3.1,1.9c0.5,0.3,1,0.4,1.5,0.6s1,0.3,1.4,0.4
	c0.4,0.1,0.8,0.2,1.2,0.3c0.3,0.1,0.7,0.1,1.1,0.2c0.3,0,0.6,0.1,0.8,0.1h0.6h0.5l-0.5-0.1l-0.6-0.1l-0.8-0.2
	c-0.3-0.1-0.7-0.1-1-0.2c-0.4-0.1-0.8-0.2-1.2-0.4c-0.4-0.1-0.9-0.3-1.3-0.5c-0.5-0.2-1-0.4-1.4-0.7c-1-0.6-2-1.2-2.9-2
	c-1-0.9-1.8-1.8-2.6-2.9c-0.2-0.3-0.4-0.5-0.6-0.8c-0.2-0.3-0.4-0.6-0.5-0.9s-0.4-0.6-0.5-1l-0.5-1c-0.6-1.3-1-2.6-1.3-4
	c-0.1-0.3-0.2-0.7-0.2-1s-0.2-0.7-0.2-1.1c-0.1-0.4-0.1-0.7-0.2-1L382,56v-0.3v-0.2c-0.2-1.4-0.3-2.9-0.5-4.2c0-0.4-0.1-0.7-0.2-1.1
	c0.2,0.4,0.4,0.8,0.6,1.3C392.9,76.7,402.9,69.2,406.1,67.4z"/>
<path class="st6" d="M359.3,76.5l-2.7,6c0,0-16-6-23.6,5C333.1,87.6,335.8,71.3,359.3,76.5z"/>
<path class="st6" d="M374.2,76.8l2.8,6c0,0,15.9-6.4,23.7,4.5C400.7,87.3,397.7,71.1,374.2,76.8z"/>
<path class="st19" d="M374.8,116.7c0,1.2-3.5,2.2-7.9,2.2s-7.9-1-7.9-2.2c0-1.3,3.5-2.2,7.9-2.2S374.8,115.4,374.8,116.7z"/>
<path class="st5" d="M368,164.9c0,5.6-0.5,10.1-1.1,10.1c-0.6,0-1.1-4.5-1.1-10.1s0.5-10.1,1.1-10.1
	C367.5,154.8,368,159.3,368,164.9z"/>
<linearGradient id="SVGID_8_" gradientUnits="userSpaceOnUse" x1="330.1953" y1="540.9699" x2="330.1953" y2="553.0599" gradientTransform="matrix(0.9504 0 0 -0.9504 33.0478 642.2999)">
	<stop  offset="0" style="stop-color:#CF9E76;stop-opacity:0"/>
	<stop  offset="0.99" style="stop-color:#CF9E76"/>
</linearGradient>
<path class="st20" d="M341.3,128.1l11.3-11.5C352.6,116.7,339.3,119.8,341.3,128.1z"/>
<path class="st4" d="M213.2,323.2c0,0,27.1,24.9,10.6,38.3l-32.9,25.8c0,0-36-125.5-55.6-145.1s16-33.8,16-33.8
	S176.2,317.9,213.2,323.2z"/>
<path class="st4" d="M154,226.4c0,0,5.5-13.8,8.9-18.4c0,0-9.3-32.8-6.5-38.4l-1.2-14.3l-7.6,0.7l-3.4,13.5c0,0,6.2,8.9,2.4,16.8
	c-3.9,7.9-33.5-6.7-39-24.6l-19.3-16.5c0,0-5.3-2.9-7.6,1.5l15.9,17.4c0,0,8.9,11.1,9.6,13.9c0.7,2.8-16.4-8-22.6-16.7l-17-11.6
	c0,0-8.2-4.7-9.8,0.9l21.5,19.1c0,0,18.5,12.4,20.5,17.5c2,5.1-3.5,25.3-3.5,25.3l25.6,29.6l27.8-1.6L154,226.4z"/>
<path class="st4" d="M107,195.5c-4.1,0-16.4-8-22.6-16.7l-17-11.6c0,0-8.2-4.7-9.8,0.9l21.5,19.1c0,0,18.5,12.4,20.5,17.5
	C101.6,209.8,109.9,195.5,107,195.5z"/>
<path class="st4" d="M111.4,210.9c-4.1,0-16.4-8-22.6-16.7l-17-11.6c0,0-8.2-4.7-9.8,0.9l21.5,19.1c0,0,14.9,13.5,18.5,17.7
	C106.8,225.8,114.3,210.9,111.4,210.9z"/>
<path class="st3" d="M368.2,340.2c-2.9-3.6-8.3-10.6-10-14.4c0,0-33.3-7.6-36.8-12.7l-13.1-5.8l-3,7l10.2,9.5c0,0,10.8-1.2,15.8,6
	c5,7.2-21.9,26.2-40.3,22.4l-8.9,3.4l0.4,8.7l5.3-1.3c0,0,14-2.5,16.9-1.7c2.5,0.6-11.3,8.5-21.9,11.1l0.6,13.7l13.5-1.4
	c0,0,18.5-4.5,25.3-3.6c-3.8,1.6-7.7,2.6-11.8,3.2l-18.3,9.3c0,0-8.1,5-3.9,9l27.1-9.7c0,0,19-6.6,24.4-7.7l28.2-6.1l5.8-12.2
	c0.4-0.1,0.8-0.2,1.2-0.3c11.1-3.2,42.8,0.5,76,6l0.9-20C423.2,352.7,387.9,345.1,368.2,340.2z"/>
<path class="st4" d="M492.5,335.8c0,0,43.4-6.8,47.2,14l7,36.9c0,0-145.1-32.5-171.7-24.8s-22-30.3-22-30.3S470,365.6,492.5,335.8z"
	/>
<path class="st4" d="M370,337.9c0,0-9.5-11.4-11.8-16.6c0,0-33.3-7.6-36.8-12.7l-13.1-5.8l-3,7l10.2,9.5c0,0,10.8-1.2,15.8,6
	s-21.9,26.2-40.3,22.4l-23.8,9c0,0-5,3.3-2.3,7.3l22.8-5.6c0,0,14-2.5,16.9-1.7c2.8,0.7-14.9,10.5-25.5,11.8l-18.2,9.3
	c0,0-8.1,5-3.9,9L284,377c0,0,19.7-10.3,25.2-9.5c5.5,0.8,20.5,15.2,20.5,15.2l38.2-8.2l12-25.1L370,337.9z"/>
<path class="st4" d="M321.9,365.1c-2.8,3-17,6.7-27.6,5.3l-20,4.7c0,0-9,2.9-6,7.8L297,380c0,0,21.6-5.2,26.7-3.2
	C328.8,378.7,323.9,362.9,321.9,365.1z"/>
<path class="st4" d="M336,367.8c-2,3.6-14.9,10.5-25.5,11.8l-18.3,9.3c0,0-8.1,5-3.9,9l27-9.7c0,0,19-6.6,24.4-7.7
	C346.8,379,337.4,365.3,336,367.8z"/>
<path class="st5" d="M136.8,214.3l6.8-23.4C143.6,190.9,131.6,200.7,136.8,214.3z"/>
<path class="st5" d="M309.5,355.8c0,0,8.4,5.4,16.5-1.5L309.5,355.8z"/>
<path class="st5" d="M318.7,367.5c0,0,9.7,8.4,22-1.3L318.7,367.5z"/>
<path class="st17" d="M311.3,304.5c-3.8,0.3-3.4,5-3.4,5l3.5,3.4l3.9-6.4L311.3,304.5z"/>
<path class="st17" d="M270.6,358.3l-4.7,1.8c-1,2.3,0.8,3,0.8,3l5-1.2L270.6,358.3z"/>
<path class="st17" d="M263.3,379.3l-5.9,3.3c-1.8,2.4,1,3.3,1,3.3l6.1-2.1L263.3,379.3z"/>
<path class="st12" d="M424.2,265l5.4-3.9l-12.4-17.2l-11.3,8.2l12.4,17.2l4.4-3.2l43.1,75.2v76.7h1.9v-77.2L424.2,265z"/>
<path class="st12" d="M306.7,265l-5.4-3.9l12.4-17.2l11.3,8.2l-12.4,17.2l-4.4-3.2l-43.1,75.2v76.7h-1.9v-77.2L306.7,265z"/>
<path class="st21" d="M136.3,436.9h458.3v355.4H136.3V436.9z"/>
<path class="st22" d="M65.8,426.9v24.3h42.9v341.1h71.1V451.2H566v341.1h71.1V451.2H665v-24.3H65.8z"/>
<path class="st22" d="M0,404.6h730.9v26.9H0V404.6z"/>
<path class="st22" d="M286,470.5h158.9v321.8H286V470.5z"/>
</svg>
