<?xml version="1.0" encoding="utf-8"?>
<!-- Generator: Adobe Illustrator 24.0.1, SVG Export Plug-In . SVG Version: 6.00 Build 0)  -->
<svg version="1.1" id="Layer_1" xmlns="http://www.w3.org/2000/svg" xmlns:xlink="http://www.w3.org/1999/xlink" x="0px" y="0px"
	 viewBox="0 0 1979.6 807" style="enable-background:new 0 0 1979.6 807;" xml:space="preserve">
<style type="text/css">
	.st0{fill:#51ADCF;}
</style>
<title>background2</title>
<g id="Layer_1-2">
	
		<image style="overflow:visible;opacity:0.75;" width="2010" height="837" xlink:href="45BED928.png"  transform="matrix(1 0 0 1 -20 -10)">
	</image>
	<g>
		<g>
			<path class="st0" d="M0.6,0c-2.1,28.2,0.2,65,24.8,86c27.2,23.2,56.9,5.7,84.6,29c32.1,27,7.2,63.1,40.2,107
				c30,39.9,82.5,49.4,91.8,51c51.2,8.8,69.6-16,98,0c28.6,16.1,15.5,44.6,51.6,81c9.3,9.4,35.3,32.9,73.2,40
				c20,3.8,42.2,1.5,86.6-3c3.3-0.3,12.4-3.2,24.9-3.1c8.6,0.2,17.1,1.4,25.4,3.6c30.9,8.9,31.1,71.4,74.4,101.5
				c32.7,22.7,80.7,20.5,88,20.2c33.1-1.5,39.7-2.8,39.7-2.8c5.9-1.2,17.5-3.4,30.4-2.8c4.8,0.3,9.5,1.1,14.1,2.4
				c25.4,7,31.6,19.2,99,82c53.2,49.6,61.1,53,67,55c52.2,17.8,77.6-27.3,135.1-27c100.9,0.6,135.7,139.7,224.8,132
				c31.7-2.7,26.3-21,89.7-46c45.5-17.9,110.3-43.4,162.9-20c62.3,27.7,54.8,100.7,107.3,107c18.6,2.2,44-5.5,94.9-21
				c25.1-7.7,25.8-9.4,35.1-11c24.9-4.3,62.3,1,115.5,46V0H0.6z"/>
		</g>
	</g>
</g>
</svg>
